<svg xmlns="http://www.w3.org/2000/svg" xmlns:xlink="http://www.w3.org/1999/xlink" width="500" zoomAndPan="magnify" viewBox="0 0 375 374.999991" height="500" preserveAspectRatio="xMidYMid meet" version="1.0"><defs><g/><clipPath id="a8997280cc"><path d="M 26 0.519531 L 120 0.519531 L 120 21 L 26 21 Z M 26 0.519531 " clip-rule="nonzero"/></clipPath><clipPath id="5bd69852e6"><path d="M 85 8 L 93.398438 8 L 93.398438 16 L 85 16 Z M 85 8 " clip-rule="nonzero"/></clipPath><clipPath id="95790b55f5"><rect x="0" width="94" y="0" height="21"/></clipPath><clipPath id="30e011faed"><path d="M 0.359375 17 L 148.441406 17 L 148.441406 32.199219 L 0.359375 32.199219 Z M 0.359375 17 " clip-rule="nonzero"/></clipPath><clipPath id="9c9f7d2edd"><rect x="0" width="149" y="0" height="16"/></clipPath><clipPath id="ae817bddb9"><rect x="0" width="149" y="0" height="33"/></clipPath><clipPath id="ca29360e3d"><rect x="0" width="210" y="0" height="61"/></clipPath><clipPath id="547cff7cef"><path d="M 175.660156 180.707031 L 197.96875 180.707031 L 197.96875 203.015625 L 175.660156 203.015625 Z M 175.660156 180.707031 " clip-rule="nonzero"/></clipPath><clipPath id="796ff642b1"><path d="M 186.816406 180.707031 C 180.65625 180.707031 175.660156 185.699219 175.660156 191.863281 C 175.660156 198.023438 180.65625 203.015625 186.816406 203.015625 C 192.976562 203.015625 197.96875 198.023438 197.96875 191.863281 C 197.96875 185.699219 192.976562 180.707031 186.816406 180.707031 Z M 186.816406 180.707031 " clip-rule="nonzero"/></clipPath><clipPath id="fb8cf1c64d"><path d="M 0.660156 0.707031 L 22.96875 0.707031 L 22.96875 23.015625 L 0.660156 23.015625 Z M 0.660156 0.707031 " clip-rule="nonzero"/></clipPath><clipPath id="a5c5da0f86"><path d="M 11.816406 0.707031 C 5.65625 0.707031 0.660156 5.699219 0.660156 11.863281 C 0.660156 18.023438 5.65625 23.015625 11.816406 23.015625 C 17.976562 23.015625 22.96875 18.023438 22.96875 11.863281 C 22.96875 5.699219 17.976562 0.707031 11.816406 0.707031 Z M 11.816406 0.707031 " clip-rule="nonzero"/></clipPath><clipPath id="0830d7fe9f"><rect x="0" width="23" y="0" height="24"/></clipPath></defs><path fill="#ff3131" d="M 195.078125 188.101562 L 267.171875 268.554688 C 271.046875 272.863281 270.699219 279.523438 266.34375 283.355469 C 262.035156 287.230469 255.375 286.882812 251.542969 282.527344 L 196.601562 221.230469 C 192.160156 216.269531 184.324219 216.660156 180.363281 221.972656 L 71.089844 369.382812 C 67.648438 374.039062 61.074219 374.996094 56.417969 371.558594 C 51.757812 368.117188 50.800781 361.546875 54.242188 356.886719 L 178.839844 188.839844 C 182.800781 183.488281 190.636719 183.136719 195.078125 188.101562 Z M 195.078125 188.101562 " fill-opacity="1" fill-rule="nonzero"/><g transform="matrix(1, 0, 0, 1, 117, 287)"><g clip-path="url(#ae817bddb9)"><g clip-path="url(#a8997280cc)"><g transform="matrix(1, 0, 0, 1, 26, 0)"><g clip-path="url(#95790b55f5)"><g fill="#000000" fill-opacity="1"><g transform="translate(1.104448, 15.583174)"><g><path d="M 6.40625 0 L 3.6875 -4.125 L 3.078125 -3.4375 L 3.078125 0 L 1.0625 0 L 1.0625 -9.875 L 3.078125 -9.875 L 3.078125 -6.015625 L 6.3125 -9.875 L 8.65625 -9.875 L 4.984375 -5.625 L 8.921875 0 Z M 6.40625 0 "/></g></g></g><g fill="#000000" fill-opacity="1"><g transform="translate(10.230424, 15.583174)"><g><path d="M 2.546875 -3.265625 C 2.585938 -2.597656 2.75 -2.117188 3.03125 -1.828125 C 3.320312 -1.535156 3.78125 -1.390625 4.40625 -1.390625 C 4.769531 -1.390625 5.085938 -1.429688 5.359375 -1.515625 C 5.628906 -1.609375 5.867188 -1.785156 6.078125 -2.046875 L 7.453125 -1.0625 C 7.148438 -0.632812 6.757812 -0.3125 6.28125 -0.09375 C 5.800781 0.113281 5.148438 0.21875 4.328125 0.21875 C 3.085938 0.21875 2.164062 -0.101562 1.5625 -0.75 C 0.957031 -1.394531 0.65625 -2.375 0.65625 -3.6875 C 0.65625 -6.363281 1.851562 -7.703125 4.25 -7.703125 C 5.3125 -7.703125 6.125 -7.398438 6.6875 -6.796875 C 7.25 -6.191406 7.53125 -5.316406 7.53125 -4.171875 L 7.53125 -3.265625 Z M 5.703125 -4.53125 C 5.703125 -5.664062 5.203125 -6.234375 4.203125 -6.234375 C 3.878906 -6.234375 3.613281 -6.175781 3.40625 -6.0625 C 3.195312 -5.957031 3.023438 -5.789062 2.890625 -5.5625 C 2.765625 -5.34375 2.671875 -5 2.609375 -4.53125 Z M 5.703125 -4.53125 "/></g></g></g><g fill="#000000" fill-opacity="1"><g transform="translate(18.379636, 15.583174)"><g><path d="M 0.25 1 C 0.644531 1.144531 1.003906 1.21875 1.328125 1.21875 C 1.597656 1.21875 1.835938 1.132812 2.046875 0.96875 C 2.265625 0.800781 2.484375 0.453125 2.703125 -0.078125 L 2.890625 -0.515625 L 0.1875 -7.484375 L 2.109375 -7.484375 L 3.875 -2.703125 L 5.6875 -7.484375 L 7.546875 -7.484375 L 4.34375 0.515625 C 4.070312 1.160156 3.8125 1.632812 3.5625 1.9375 C 3.320312 2.25 3.035156 2.472656 2.703125 2.609375 C 2.378906 2.742188 1.96875 2.8125 1.46875 2.8125 C 0.925781 2.8125 0.390625 2.742188 -0.140625 2.609375 Z M 0.25 1 "/></g></g></g><g fill="#000000" fill-opacity="1"><g transform="translate(26.115327, 15.583174)"><g><path d="M 9.109375 -1.640625 C 8.679688 -1.003906 8.160156 -0.535156 7.546875 -0.234375 C 6.929688 0.0546875 6.171875 0.203125 5.265625 0.203125 C 2.210938 0.203125 0.6875 -1.507812 0.6875 -4.9375 C 0.6875 -6.6875 1.070312 -7.976562 1.84375 -8.8125 C 2.625 -9.65625 3.742188 -10.078125 5.203125 -10.078125 C 6.160156 -10.078125 6.941406 -9.914062 7.546875 -9.59375 C 8.160156 -9.269531 8.628906 -8.84375 8.953125 -8.3125 L 7.390625 -7.09375 C 7.160156 -7.4375 6.953125 -7.679688 6.765625 -7.828125 C 6.578125 -7.984375 6.359375 -8.097656 6.109375 -8.171875 C 5.867188 -8.253906 5.582031 -8.296875 5.25 -8.296875 C 4.4375 -8.296875 3.816406 -8.035156 3.390625 -7.515625 C 2.972656 -7.003906 2.765625 -6.144531 2.765625 -4.9375 C 2.765625 -3.8125 2.960938 -2.96875 3.359375 -2.40625 C 3.753906 -1.851562 4.382812 -1.578125 5.25 -1.578125 C 5.84375 -1.578125 6.300781 -1.6875 6.625 -1.90625 C 6.945312 -2.132812 7.242188 -2.429688 7.515625 -2.796875 Z M 9.109375 -1.640625 "/></g></g></g><g fill="#000000" fill-opacity="1"><g transform="translate(35.619176, 15.583174)"><g><path d="M 5.859375 0 L 5.859375 -4.125 C 5.859375 -4.914062 5.785156 -5.4375 5.640625 -5.6875 C 5.492188 -5.945312 5.226562 -6.078125 4.84375 -6.078125 C 4.300781 -6.078125 3.644531 -5.71875 2.875 -5 L 2.875 0 L 1.03125 0 L 1.03125 -10.625 L 2.875 -10.625 L 2.875 -6.515625 C 3.257812 -6.898438 3.671875 -7.191406 4.109375 -7.390625 C 4.554688 -7.597656 4.992188 -7.703125 5.421875 -7.703125 C 6.253906 -7.703125 6.84375 -7.460938 7.1875 -6.984375 C 7.53125 -6.515625 7.703125 -5.851562 7.703125 -5 L 7.703125 0 Z M 5.859375 0 "/></g></g></g><g fill="#000000" fill-opacity="1"><g transform="translate(44.295984, 15.583174)"><g><path d="M 2.546875 -3.265625 C 2.585938 -2.597656 2.75 -2.117188 3.03125 -1.828125 C 3.320312 -1.535156 3.78125 -1.390625 4.40625 -1.390625 C 4.769531 -1.390625 5.085938 -1.429688 5.359375 -1.515625 C 5.628906 -1.609375 5.867188 -1.785156 6.078125 -2.046875 L 7.453125 -1.0625 C 7.148438 -0.632812 6.757812 -0.3125 6.28125 -0.09375 C 5.800781 0.113281 5.148438 0.21875 4.328125 0.21875 C 3.085938 0.21875 2.164062 -0.101562 1.5625 -0.75 C 0.957031 -1.394531 0.65625 -2.375 0.65625 -3.6875 C 0.65625 -6.363281 1.851562 -7.703125 4.25 -7.703125 C 5.3125 -7.703125 6.125 -7.398438 6.6875 -6.796875 C 7.25 -6.191406 7.53125 -5.316406 7.53125 -4.171875 L 7.53125 -3.265625 Z M 5.703125 -4.53125 C 5.703125 -5.664062 5.203125 -6.234375 4.203125 -6.234375 C 3.878906 -6.234375 3.613281 -6.175781 3.40625 -6.0625 C 3.195312 -5.957031 3.023438 -5.789062 2.890625 -5.5625 C 2.765625 -5.34375 2.671875 -5 2.609375 -4.53125 Z M 5.703125 -4.53125 "/></g></g></g><g fill="#000000" fill-opacity="1"><g transform="translate(52.445195, 15.583174)"><g><path d="M 7.21875 -1.0625 C 6.9375 -0.644531 6.5625 -0.328125 6.09375 -0.109375 C 5.625 0.109375 5.035156 0.21875 4.328125 0.21875 C 3.117188 0.21875 2.203125 -0.109375 1.578125 -0.765625 C 0.960938 -1.421875 0.65625 -2.394531 0.65625 -3.6875 C 0.65625 -4.945312 0.953125 -5.929688 1.546875 -6.640625 C 2.148438 -7.347656 3.050781 -7.703125 4.25 -7.703125 C 4.894531 -7.703125 5.46875 -7.59375 5.96875 -7.375 C 6.46875 -7.164062 6.847656 -6.84375 7.109375 -6.40625 L 5.75 -5.4375 C 5.582031 -5.65625 5.382812 -5.816406 5.15625 -5.921875 C 4.9375 -6.035156 4.648438 -6.09375 4.296875 -6.09375 C 3.671875 -6.09375 3.222656 -5.898438 2.953125 -5.515625 C 2.679688 -5.128906 2.546875 -4.53125 2.546875 -3.71875 C 2.546875 -2.914062 2.679688 -2.328125 2.953125 -1.953125 C 3.234375 -1.578125 3.703125 -1.390625 4.359375 -1.390625 C 4.648438 -1.390625 4.910156 -1.429688 5.140625 -1.515625 C 5.378906 -1.597656 5.609375 -1.773438 5.828125 -2.046875 Z M 7.21875 -1.0625 "/></g></g></g><g fill="#000000" fill-opacity="1"><g transform="translate(59.995515, 15.583174)"><g><path d="M 5.59375 0 L 3.59375 -3.09375 L 2.875 -2.328125 L 2.875 0 L 1.03125 0 L 1.03125 -10.625 L 2.875 -10.625 L 2.875 -4.546875 L 5.390625 -7.484375 L 7.53125 -7.484375 L 4.703125 -4.34375 L 7.6875 0 Z M 5.59375 0 "/></g></g></g><g fill="#000000" fill-opacity="1"><g transform="translate(67.838151, 15.583174)"><g><path d="M 8.625 -2.859375 C 8.625 -1.867188 8.285156 -1.144531 7.609375 -0.6875 C 6.929688 -0.226562 5.988281 0 4.78125 0 L 1.0625 0 L 1.0625 -9.875 L 4.5625 -9.875 C 5.820312 -9.875 6.722656 -9.6875 7.265625 -9.3125 C 7.816406 -8.945312 8.09375 -8.363281 8.09375 -7.5625 C 8.09375 -6.945312 7.941406 -6.445312 7.640625 -6.0625 C 7.347656 -5.6875 6.882812 -5.4375 6.25 -5.3125 C 7.082031 -5.195312 7.6875 -4.9375 8.0625 -4.53125 C 8.4375 -4.125 8.625 -3.566406 8.625 -2.859375 Z M 6.0625 -7.125 C 6.0625 -7.5 5.921875 -7.757812 5.640625 -7.90625 C 5.367188 -8.050781 4.941406 -8.125 4.359375 -8.125 L 3.078125 -8.125 L 3.078125 -6 L 4.3125 -6 C 4.90625 -6 5.34375 -6.082031 5.625 -6.25 C 5.914062 -6.414062 6.0625 -6.707031 6.0625 -7.125 Z M 6.578125 -3.03125 C 6.578125 -3.476562 6.425781 -3.789062 6.125 -3.96875 C 5.820312 -4.15625 5.257812 -4.25 4.4375 -4.25 L 3.078125 -4.25 L 3.078125 -1.78125 L 4.109375 -1.78125 C 4.890625 -1.78125 5.425781 -1.816406 5.71875 -1.890625 C 6.019531 -1.972656 6.238281 -2.101562 6.375 -2.28125 C 6.507812 -2.457031 6.578125 -2.707031 6.578125 -3.03125 Z M 6.578125 -3.03125 "/></g></g></g><g fill="#000000" fill-opacity="1"><g transform="translate(77.092462, 15.583174)"><g><path d="M 7.828125 -3.71875 C 7.828125 -2.476562 7.539062 -1.507812 6.96875 -0.8125 C 6.394531 -0.125 5.488281 0.21875 4.25 0.21875 C 1.851562 0.21875 0.65625 -1.09375 0.65625 -3.71875 C 0.65625 -4.988281 0.941406 -5.96875 1.515625 -6.65625 C 2.085938 -7.351562 3 -7.703125 4.25 -7.703125 C 5.488281 -7.703125 6.394531 -7.351562 6.96875 -6.65625 C 7.539062 -5.96875 7.828125 -4.988281 7.828125 -3.71875 Z M 5.921875 -3.71875 C 5.921875 -4.539062 5.789062 -5.140625 5.53125 -5.515625 C 5.28125 -5.898438 4.851562 -6.09375 4.25 -6.09375 C 3.65625 -6.09375 3.222656 -5.894531 2.953125 -5.5 C 2.679688 -5.113281 2.546875 -4.519531 2.546875 -3.71875 C 2.546875 -2.925781 2.675781 -2.335938 2.9375 -1.953125 C 3.207031 -1.578125 3.644531 -1.390625 4.25 -1.390625 C 4.84375 -1.390625 5.269531 -1.578125 5.53125 -1.953125 C 5.789062 -2.328125 5.921875 -2.914062 5.921875 -3.71875 Z M 5.921875 -3.71875 "/></g></g></g><g clip-path="url(#5bd69852e6)"><g fill="#000000" fill-opacity="1"><g transform="translate(85.576768, 15.583174)"><g><path d="M 5.296875 0 L 3.8125 -2.375 L 2.265625 0 L 0.21875 0 L 2.796875 -3.6875 L 0.265625 -7.484375 L 2.40625 -7.484375 L 3.90625 -5.109375 L 5.4375 -7.484375 L 7.46875 -7.484375 L 4.890625 -3.796875 L 7.484375 0 Z M 5.296875 0 "/></g></g></g></g></g></g></g><g clip-path="url(#30e011faed)"><g transform="matrix(1, 0, 0, 1, -0.000000000000014211, 17)"><g clip-path="url(#9c9f7d2edd)"><g fill="#000000" fill-opacity="1"><g transform="translate(0.88381, 12.097616)"><g><path d="M 5.875 -2.0625 C 5.875 -1.34375 5.640625 -0.789062 5.171875 -0.40625 C 4.710938 -0.03125 4.023438 0.15625 3.109375 0.15625 C 2.484375 0.15625 1.9375 0.0507812 1.46875 -0.15625 C 1.007812 -0.375 0.632812 -0.710938 0.34375 -1.171875 L 1.453125 -2.03125 C 1.617188 -1.789062 1.773438 -1.613281 1.921875 -1.5 C 2.066406 -1.382812 2.238281 -1.296875 2.4375 -1.234375 C 2.644531 -1.171875 2.878906 -1.140625 3.140625 -1.140625 C 3.535156 -1.140625 3.84375 -1.207031 4.0625 -1.34375 C 4.28125 -1.476562 4.390625 -1.679688 4.390625 -1.953125 C 4.390625 -2.109375 4.351562 -2.238281 4.28125 -2.34375 C 4.207031 -2.457031 4.09375 -2.550781 3.9375 -2.625 C 3.78125 -2.695312 3.507812 -2.785156 3.125 -2.890625 C 2.757812 -2.992188 2.410156 -3.09375 2.078125 -3.1875 C 1.753906 -3.289062 1.472656 -3.421875 1.234375 -3.578125 C 1.003906 -3.742188 0.816406 -3.945312 0.671875 -4.1875 C 0.535156 -4.425781 0.46875 -4.734375 0.46875 -5.109375 C 0.46875 -5.785156 0.695312 -6.3125 1.15625 -6.6875 C 1.613281 -7.0625 2.265625 -7.25 3.109375 -7.25 C 4.335938 -7.25 5.207031 -6.828125 5.71875 -5.984375 L 4.609375 -5.125 C 4.421875 -5.425781 4.203125 -5.640625 3.953125 -5.765625 C 3.710938 -5.898438 3.425781 -5.96875 3.09375 -5.96875 C 2.757812 -5.96875 2.484375 -5.90625 2.265625 -5.78125 C 2.054688 -5.664062 1.953125 -5.476562 1.953125 -5.21875 C 1.953125 -4.988281 2.0625 -4.8125 2.28125 -4.6875 C 2.5 -4.570312 2.882812 -4.453125 3.4375 -4.328125 C 3.726562 -4.242188 4.019531 -4.15625 4.3125 -4.0625 C 4.613281 -3.976562 4.878906 -3.851562 5.109375 -3.6875 C 5.335938 -3.53125 5.519531 -3.320312 5.65625 -3.0625 C 5.800781 -2.800781 5.875 -2.46875 5.875 -2.0625 Z M 5.875 -2.0625 "/></g></g></g><g fill="#000000" fill-opacity="1"><g transform="translate(7.191874, 12.097616)"><g><path d="M 2.140625 -6.859375 C 2.140625 -6.609375 2.078125 -6.429688 1.953125 -6.328125 C 1.835938 -6.234375 1.648438 -6.1875 1.390625 -6.1875 C 1.109375 -6.1875 0.914062 -6.242188 0.8125 -6.359375 C 0.71875 -6.472656 0.671875 -6.640625 0.671875 -6.859375 C 0.671875 -7.097656 0.722656 -7.269531 0.828125 -7.375 C 0.941406 -7.476562 1.128906 -7.53125 1.390625 -7.53125 C 1.660156 -7.53125 1.851562 -7.476562 1.96875 -7.375 C 2.082031 -7.269531 2.140625 -7.097656 2.140625 -6.859375 Z M 0.75 0 L 0.75 -5.390625 L 2.0625 -5.390625 L 2.0625 0 Z M 0.75 0 "/></g></g></g><g fill="#000000" fill-opacity="1"><g transform="translate(10.009718, 12.097616)"><g><path d="M 5.203125 -0.765625 C 4.992188 -0.460938 4.71875 -0.234375 4.375 -0.078125 C 4.039062 0.078125 3.617188 0.15625 3.109375 0.15625 C 2.242188 0.15625 1.585938 -0.078125 1.140625 -0.546875 C 0.691406 -1.023438 0.46875 -1.726562 0.46875 -2.65625 C 0.46875 -3.5625 0.679688 -4.269531 1.109375 -4.78125 C 1.546875 -5.289062 2.195312 -5.546875 3.0625 -5.546875 C 3.519531 -5.546875 3.929688 -5.46875 4.296875 -5.3125 C 4.660156 -5.164062 4.9375 -4.929688 5.125 -4.609375 L 4.140625 -3.90625 C 4.015625 -4.070312 3.867188 -4.191406 3.703125 -4.265625 C 3.546875 -4.347656 3.34375 -4.390625 3.09375 -4.390625 C 2.632812 -4.390625 2.3125 -4.25 2.125 -3.96875 C 1.9375 -3.6875 1.84375 -3.257812 1.84375 -2.6875 C 1.84375 -2.101562 1.9375 -1.675781 2.125 -1.40625 C 2.320312 -1.132812 2.660156 -1 3.140625 -1 C 3.347656 -1 3.535156 -1.023438 3.703125 -1.078125 C 3.878906 -1.140625 4.039062 -1.269531 4.1875 -1.46875 Z M 5.203125 -0.765625 "/></g></g></g><g fill="#000000" fill-opacity="1"><g transform="translate(15.445227, 12.097616)"><g><path d="M 4.171875 0 L 4.171875 -0.6875 C 3.941406 -0.4375 3.65625 -0.234375 3.3125 -0.078125 C 2.976562 0.078125 2.65625 0.15625 2.34375 0.15625 C 1.738281 0.15625 1.3125 -0.0078125 1.0625 -0.34375 C 0.820312 -0.6875 0.703125 -1.164062 0.703125 -1.78125 L 0.703125 -5.390625 L 2.03125 -5.390625 L 2.03125 -2.421875 C 2.03125 -2.035156 2.050781 -1.742188 2.09375 -1.546875 C 2.132812 -1.347656 2.207031 -1.207031 2.3125 -1.125 C 2.414062 -1.050781 2.5625 -1.015625 2.75 -1.015625 C 3.144531 -1.015625 3.617188 -1.269531 4.171875 -1.78125 L 4.171875 -5.390625 L 5.5 -5.390625 L 5.5 0 Z M 4.171875 0 "/></g></g></g><g fill="#000000" fill-opacity="1"><g transform="translate(21.691698, 12.097616)"><g><path d="M 4 -4.09375 C 3.863281 -4.15625 3.679688 -4.1875 3.453125 -4.1875 C 3.203125 -4.1875 2.96875 -4.128906 2.75 -4.015625 C 2.53125 -3.898438 2.300781 -3.726562 2.0625 -3.5 L 2.0625 0 L 0.75 0 L 0.75 -5.390625 L 2.0625 -5.390625 L 2.0625 -4.609375 C 2.289062 -4.859375 2.535156 -5.0625 2.796875 -5.21875 C 3.054688 -5.382812 3.347656 -5.46875 3.671875 -5.46875 C 3.941406 -5.46875 4.132812 -5.429688 4.25 -5.359375 Z M 4 -4.09375 "/></g></g></g><g fill="#000000" fill-opacity="1"><g transform="translate(26.003146, 12.097616)"><g><path d="M 1.84375 -2.34375 C 1.863281 -1.863281 1.976562 -1.519531 2.1875 -1.3125 C 2.394531 -1.101562 2.722656 -1 3.171875 -1 C 3.429688 -1 3.660156 -1.03125 3.859375 -1.09375 C 4.054688 -1.164062 4.226562 -1.289062 4.375 -1.46875 L 5.359375 -0.765625 C 5.140625 -0.453125 4.859375 -0.21875 4.515625 -0.0625 C 4.171875 0.0820312 3.703125 0.15625 3.109375 0.15625 C 2.222656 0.15625 1.5625 -0.0703125 1.125 -0.53125 C 0.6875 -1 0.46875 -1.707031 0.46875 -2.65625 C 0.46875 -4.582031 1.332031 -5.546875 3.0625 -5.546875 C 3.820312 -5.546875 4.40625 -5.328125 4.8125 -4.890625 C 5.21875 -4.453125 5.421875 -3.820312 5.421875 -3 L 5.421875 -2.34375 Z M 4.109375 -3.265625 C 4.109375 -4.078125 3.75 -4.484375 3.03125 -4.484375 C 2.789062 -4.484375 2.59375 -4.441406 2.4375 -4.359375 C 2.289062 -4.285156 2.171875 -4.164062 2.078125 -4 C 1.992188 -3.84375 1.925781 -3.597656 1.875 -3.265625 Z M 4.109375 -3.265625 "/></g></g></g><g fill="#000000" fill-opacity="1"><g transform="translate(31.869799, 12.097616)"><g><path d="M 0.296875 0 L 0.296875 -0.96875 L 2.8125 -4.328125 L 0.359375 -4.328125 L 0.359375 -5.390625 L 4.390625 -5.390625 L 4.390625 -4.421875 L 1.875 -1.046875 L 4.484375 -1.046875 L 4.484375 0 Z M 0.296875 0 "/></g></g></g><g fill="#000000" fill-opacity="1"><g transform="translate(36.643187, 12.097616)"><g><path d="M 0.296875 0 L 0.296875 -0.96875 L 2.8125 -4.328125 L 0.359375 -4.328125 L 0.359375 -5.390625 L 4.390625 -5.390625 L 4.390625 -4.421875 L 1.875 -1.046875 L 4.484375 -1.046875 L 4.484375 0 Z M 0.296875 0 "/></g></g></g><g fill="#000000" fill-opacity="1"><g transform="translate(41.416575, 12.097616)"><g><path d="M 3.921875 0 L 3.921875 -0.5625 C 3.398438 -0.0820312 2.835938 0.15625 2.234375 0.15625 C 1.640625 0.15625 1.191406 0 0.890625 -0.3125 C 0.585938 -0.625 0.4375 -1.023438 0.4375 -1.515625 C 0.4375 -1.898438 0.515625 -2.21875 0.671875 -2.46875 C 0.828125 -2.71875 1.054688 -2.910156 1.359375 -3.046875 C 1.660156 -3.191406 2.101562 -3.296875 2.6875 -3.359375 L 3.8125 -3.453125 L 3.8125 -3.703125 C 3.8125 -4.003906 3.71875 -4.207031 3.53125 -4.3125 C 3.351562 -4.425781 3.09375 -4.484375 2.75 -4.484375 C 2.457031 -4.484375 2.207031 -4.4375 2 -4.34375 C 1.789062 -4.25 1.640625 -4.113281 1.546875 -3.9375 L 0.515625 -4.59375 C 0.691406 -4.894531 0.972656 -5.128906 1.359375 -5.296875 C 1.753906 -5.460938 2.222656 -5.546875 2.765625 -5.546875 C 3.609375 -5.546875 4.210938 -5.394531 4.578125 -5.09375 C 4.953125 -4.800781 5.140625 -4.320312 5.140625 -3.65625 L 5.140625 0 Z M 3.8125 -2.5 L 3.140625 -2.4375 C 2.660156 -2.394531 2.316406 -2.300781 2.109375 -2.15625 C 1.898438 -2.019531 1.796875 -1.8125 1.796875 -1.53125 C 1.796875 -1.289062 1.863281 -1.125 2 -1.03125 C 2.132812 -0.9375 2.316406 -0.890625 2.546875 -0.890625 C 2.703125 -0.890625 2.894531 -0.941406 3.125 -1.046875 C 3.363281 -1.148438 3.59375 -1.289062 3.8125 -1.46875 Z M 3.8125 -2.5 "/></g></g></g><g fill="#000000" fill-opacity="1"><g transform="translate(47.262697, 12.097616)"><g/></g></g><g fill="#000000" fill-opacity="1"><g transform="translate(49.787974, 12.097616)"><g><path d="M 3.921875 0 L 3.921875 -0.5625 C 3.398438 -0.0820312 2.835938 0.15625 2.234375 0.15625 C 1.640625 0.15625 1.191406 0 0.890625 -0.3125 C 0.585938 -0.625 0.4375 -1.023438 0.4375 -1.515625 C 0.4375 -1.898438 0.515625 -2.21875 0.671875 -2.46875 C 0.828125 -2.71875 1.054688 -2.910156 1.359375 -3.046875 C 1.660156 -3.191406 2.101562 -3.296875 2.6875 -3.359375 L 3.8125 -3.453125 L 3.8125 -3.703125 C 3.8125 -4.003906 3.71875 -4.207031 3.53125 -4.3125 C 3.351562 -4.425781 3.09375 -4.484375 2.75 -4.484375 C 2.457031 -4.484375 2.207031 -4.4375 2 -4.34375 C 1.789062 -4.25 1.640625 -4.113281 1.546875 -3.9375 L 0.515625 -4.59375 C 0.691406 -4.894531 0.972656 -5.128906 1.359375 -5.296875 C 1.753906 -5.460938 2.222656 -5.546875 2.765625 -5.546875 C 3.609375 -5.546875 4.210938 -5.394531 4.578125 -5.09375 C 4.953125 -4.800781 5.140625 -4.320312 5.140625 -3.65625 L 5.140625 0 Z M 3.8125 -2.5 L 3.140625 -2.4375 C 2.660156 -2.394531 2.316406 -2.300781 2.109375 -2.15625 C 1.898438 -2.019531 1.796875 -1.8125 1.796875 -1.53125 C 1.796875 -1.289062 1.863281 -1.125 2 -1.03125 C 2.132812 -0.9375 2.316406 -0.890625 2.546875 -0.890625 C 2.703125 -0.890625 2.894531 -0.941406 3.125 -1.046875 C 3.363281 -1.148438 3.59375 -1.289062 3.8125 -1.46875 Z M 3.8125 -2.5 "/></g></g></g><g fill="#000000" fill-opacity="1"><g transform="translate(55.634096, 12.097616)"><g><path d="M 0.75 0 L 0.75 -7.640625 L 2.0625 -7.640625 L 2.0625 0 Z M 0.75 0 "/></g></g></g><g fill="#000000" fill-opacity="1"><g transform="translate(58.451941, 12.097616)"><g><path d="M 0.75 0 L 0.75 -7.640625 L 2.0625 -7.640625 L 2.0625 0 Z M 0.75 0 "/></g></g></g><g fill="#000000" fill-opacity="1"><g transform="translate(61.269785, 12.097616)"><g><path d="M 3.921875 0 L 3.921875 -0.5625 C 3.398438 -0.0820312 2.835938 0.15625 2.234375 0.15625 C 1.640625 0.15625 1.191406 0 0.890625 -0.3125 C 0.585938 -0.625 0.4375 -1.023438 0.4375 -1.515625 C 0.4375 -1.898438 0.515625 -2.21875 0.671875 -2.46875 C 0.828125 -2.71875 1.054688 -2.910156 1.359375 -3.046875 C 1.660156 -3.191406 2.101562 -3.296875 2.6875 -3.359375 L 3.8125 -3.453125 L 3.8125 -3.703125 C 3.8125 -4.003906 3.71875 -4.207031 3.53125 -4.3125 C 3.351562 -4.425781 3.09375 -4.484375 2.75 -4.484375 C 2.457031 -4.484375 2.207031 -4.4375 2 -4.34375 C 1.789062 -4.25 1.640625 -4.113281 1.546875 -3.9375 L 0.515625 -4.59375 C 0.691406 -4.894531 0.972656 -5.128906 1.359375 -5.296875 C 1.753906 -5.460938 2.222656 -5.546875 2.765625 -5.546875 C 3.609375 -5.546875 4.210938 -5.394531 4.578125 -5.09375 C 4.953125 -4.800781 5.140625 -4.320312 5.140625 -3.65625 L 5.140625 0 Z M 3.8125 -2.5 L 3.140625 -2.4375 C 2.660156 -2.394531 2.316406 -2.300781 2.109375 -2.15625 C 1.898438 -2.019531 1.796875 -1.8125 1.796875 -1.53125 C 1.796875 -1.289062 1.863281 -1.125 2 -1.03125 C 2.132812 -0.9375 2.316406 -0.890625 2.546875 -0.890625 C 2.703125 -0.890625 2.894531 -0.941406 3.125 -1.046875 C 3.363281 -1.148438 3.59375 -1.289062 3.8125 -1.46875 Z M 3.8125 -2.5 "/></g></g></g><g fill="#000000" fill-opacity="1"><g transform="translate(67.115908, 12.097616)"><g/></g></g><g fill="#000000" fill-opacity="1"><g transform="translate(69.641184, 12.097616)"><g><path d="M 4 -4.09375 C 3.863281 -4.15625 3.679688 -4.1875 3.453125 -4.1875 C 3.203125 -4.1875 2.96875 -4.128906 2.75 -4.015625 C 2.53125 -3.898438 2.300781 -3.726562 2.0625 -3.5 L 2.0625 0 L 0.75 0 L 0.75 -5.390625 L 2.0625 -5.390625 L 2.0625 -4.609375 C 2.289062 -4.859375 2.535156 -5.0625 2.796875 -5.21875 C 3.054688 -5.382812 3.347656 -5.46875 3.671875 -5.46875 C 3.941406 -5.46875 4.132812 -5.429688 4.25 -5.359375 Z M 4 -4.09375 "/></g></g></g><g fill="#000000" fill-opacity="1"><g transform="translate(73.952631, 12.097616)"><g><path d="M 2.140625 -6.859375 C 2.140625 -6.609375 2.078125 -6.429688 1.953125 -6.328125 C 1.835938 -6.234375 1.648438 -6.1875 1.390625 -6.1875 C 1.109375 -6.1875 0.914062 -6.242188 0.8125 -6.359375 C 0.71875 -6.472656 0.671875 -6.640625 0.671875 -6.859375 C 0.671875 -7.097656 0.722656 -7.269531 0.828125 -7.375 C 0.941406 -7.476562 1.128906 -7.53125 1.390625 -7.53125 C 1.660156 -7.53125 1.851562 -7.476562 1.96875 -7.375 C 2.082031 -7.269531 2.140625 -7.097656 2.140625 -6.859375 Z M 0.75 0 L 0.75 -5.390625 L 2.0625 -5.390625 L 2.0625 0 Z M 0.75 0 "/></g></g></g><g fill="#000000" fill-opacity="1"><g transform="translate(76.770476, 12.097616)"><g><path d="M 5.765625 -2.734375 C 5.765625 -1.835938 5.578125 -1.128906 5.203125 -0.609375 C 4.828125 -0.0976562 4.296875 0.15625 3.609375 0.15625 C 3.328125 0.15625 3.023438 0.09375 2.703125 -0.03125 C 2.378906 -0.15625 2.125 -0.3125 1.9375 -0.5 L 1.75 0 L 0.75 0 L 0.75 -7.640625 L 2.0625 -7.640625 L 2.0625 -4.953125 C 2.550781 -5.347656 3.09375 -5.546875 3.6875 -5.546875 C 4.40625 -5.546875 4.929688 -5.296875 5.265625 -4.796875 C 5.597656 -4.296875 5.765625 -3.609375 5.765625 -2.734375 Z M 4.40625 -2.71875 C 4.40625 -3.269531 4.316406 -3.679688 4.140625 -3.953125 C 3.960938 -4.234375 3.679688 -4.375 3.296875 -4.375 C 3.085938 -4.375 2.867188 -4.320312 2.640625 -4.21875 C 2.421875 -4.125 2.226562 -4 2.0625 -3.84375 L 2.0625 -1.5 C 2.21875 -1.363281 2.398438 -1.25 2.609375 -1.15625 C 2.816406 -1.0625 3.019531 -1.015625 3.21875 -1.015625 C 3.601562 -1.015625 3.894531 -1.15625 4.09375 -1.4375 C 4.300781 -1.726562 4.40625 -2.15625 4.40625 -2.71875 Z M 4.40625 -2.71875 "/></g></g></g><g fill="#000000" fill-opacity="1"><g transform="translate(83.016947, 12.097616)"><g><path d="M 3.921875 0 L 3.921875 -0.5625 C 3.398438 -0.0820312 2.835938 0.15625 2.234375 0.15625 C 1.640625 0.15625 1.191406 0 0.890625 -0.3125 C 0.585938 -0.625 0.4375 -1.023438 0.4375 -1.515625 C 0.4375 -1.898438 0.515625 -2.21875 0.671875 -2.46875 C 0.828125 -2.71875 1.054688 -2.910156 1.359375 -3.046875 C 1.660156 -3.191406 2.101562 -3.296875 2.6875 -3.359375 L 3.8125 -3.453125 L 3.8125 -3.703125 C 3.8125 -4.003906 3.71875 -4.207031 3.53125 -4.3125 C 3.351562 -4.425781 3.09375 -4.484375 2.75 -4.484375 C 2.457031 -4.484375 2.207031 -4.4375 2 -4.34375 C 1.789062 -4.25 1.640625 -4.113281 1.546875 -3.9375 L 0.515625 -4.59375 C 0.691406 -4.894531 0.972656 -5.128906 1.359375 -5.296875 C 1.753906 -5.460938 2.222656 -5.546875 2.765625 -5.546875 C 3.609375 -5.546875 4.210938 -5.394531 4.578125 -5.09375 C 4.953125 -4.800781 5.140625 -4.320312 5.140625 -3.65625 L 5.140625 0 Z M 3.8125 -2.5 L 3.140625 -2.4375 C 2.660156 -2.394531 2.316406 -2.300781 2.109375 -2.15625 C 1.898438 -2.019531 1.796875 -1.8125 1.796875 -1.53125 C 1.796875 -1.289062 1.863281 -1.125 2 -1.03125 C 2.132812 -0.9375 2.316406 -0.890625 2.546875 -0.890625 C 2.703125 -0.890625 2.894531 -0.941406 3.125 -1.046875 C 3.363281 -1.148438 3.59375 -1.289062 3.8125 -1.46875 Z M 3.8125 -2.5 "/></g></g></g><g fill="#000000" fill-opacity="1"><g transform="translate(88.86307, 12.097616)"><g><path d="M 0.75 0 L 0.75 -7.640625 L 2.0625 -7.640625 L 2.0625 0 Z M 0.75 0 "/></g></g></g><g fill="#000000" fill-opacity="1"><g transform="translate(91.680914, 12.097616)"><g><path d="M 3.71875 0 C 3.363281 0.101562 2.988281 0.15625 2.59375 0.15625 C 1.96875 0.15625 1.519531 0.015625 1.25 -0.265625 C 0.976562 -0.546875 0.84375 -1 0.84375 -1.625 L 0.84375 -4.328125 L 0.15625 -4.328125 L 0.15625 -5.390625 L 0.84375 -5.390625 L 0.84375 -6.890625 L 2.171875 -6.890625 L 2.171875 -5.390625 L 3.421875 -5.390625 L 3.421875 -4.328125 L 2.171875 -4.328125 L 2.171875 -1.796875 C 2.171875 -1.460938 2.222656 -1.234375 2.328125 -1.109375 C 2.429688 -0.992188 2.578125 -0.9375 2.765625 -0.9375 C 3.003906 -0.9375 3.242188 -0.984375 3.484375 -1.078125 Z M 3.71875 0 "/></g></g></g><g fill="#000000" fill-opacity="1"><g transform="translate(95.473967, 12.097616)"><g><path d="M 3.921875 0 L 3.921875 -0.5625 C 3.398438 -0.0820312 2.835938 0.15625 2.234375 0.15625 C 1.640625 0.15625 1.191406 0 0.890625 -0.3125 C 0.585938 -0.625 0.4375 -1.023438 0.4375 -1.515625 C 0.4375 -1.898438 0.515625 -2.21875 0.671875 -2.46875 C 0.828125 -2.71875 1.054688 -2.910156 1.359375 -3.046875 C 1.660156 -3.191406 2.101562 -3.296875 2.6875 -3.359375 L 3.8125 -3.453125 L 3.8125 -3.703125 C 3.8125 -4.003906 3.71875 -4.207031 3.53125 -4.3125 C 3.351562 -4.425781 3.09375 -4.484375 2.75 -4.484375 C 2.457031 -4.484375 2.207031 -4.4375 2 -4.34375 C 1.789062 -4.25 1.640625 -4.113281 1.546875 -3.9375 L 0.515625 -4.59375 C 0.691406 -4.894531 0.972656 -5.128906 1.359375 -5.296875 C 1.753906 -5.460938 2.222656 -5.546875 2.765625 -5.546875 C 3.609375 -5.546875 4.210938 -5.394531 4.578125 -5.09375 C 4.953125 -4.800781 5.140625 -4.320312 5.140625 -3.65625 L 5.140625 0 Z M 3.8125 -2.5 L 3.140625 -2.4375 C 2.660156 -2.394531 2.316406 -2.300781 2.109375 -2.15625 C 1.898438 -2.019531 1.796875 -1.8125 1.796875 -1.53125 C 1.796875 -1.289062 1.863281 -1.125 2 -1.03125 C 2.132812 -0.9375 2.316406 -0.890625 2.546875 -0.890625 C 2.703125 -0.890625 2.894531 -0.941406 3.125 -1.046875 C 3.363281 -1.148438 3.59375 -1.289062 3.8125 -1.46875 Z M 3.8125 -2.5 "/></g></g></g><g fill="#000000" fill-opacity="1"><g transform="translate(101.32009, 12.097616)"><g><path d="M 2.34375 -0.75 C 2.34375 -0.445312 2.273438 -0.234375 2.140625 -0.109375 C 2.003906 0.015625 1.789062 0.078125 1.5 0.078125 C 1.175781 0.078125 0.953125 0.0078125 0.828125 -0.125 C 0.710938 -0.269531 0.65625 -0.476562 0.65625 -0.75 C 0.65625 -1.03125 0.71875 -1.234375 0.84375 -1.359375 C 0.96875 -1.492188 1.1875 -1.5625 1.5 -1.5625 C 1.8125 -1.5625 2.03125 -1.492188 2.15625 -1.359375 C 2.28125 -1.234375 2.34375 -1.03125 2.34375 -0.75 Z M 2.34375 -0.75 "/></g></g></g><g fill="#000000" fill-opacity="1"><g transform="translate(104.317572, 12.097616)"><g/></g></g><g fill="#000000" fill-opacity="1"><g transform="translate(106.842848, 12.097616)"><g><path d="M 5.875 -2.0625 C 5.875 -1.34375 5.640625 -0.789062 5.171875 -0.40625 C 4.710938 -0.03125 4.023438 0.15625 3.109375 0.15625 C 2.484375 0.15625 1.9375 0.0507812 1.46875 -0.15625 C 1.007812 -0.375 0.632812 -0.710938 0.34375 -1.171875 L 1.453125 -2.03125 C 1.617188 -1.789062 1.773438 -1.613281 1.921875 -1.5 C 2.066406 -1.382812 2.238281 -1.296875 2.4375 -1.234375 C 2.644531 -1.171875 2.878906 -1.140625 3.140625 -1.140625 C 3.535156 -1.140625 3.84375 -1.207031 4.0625 -1.34375 C 4.28125 -1.476562 4.390625 -1.679688 4.390625 -1.953125 C 4.390625 -2.109375 4.351562 -2.238281 4.28125 -2.34375 C 4.207031 -2.457031 4.09375 -2.550781 3.9375 -2.625 C 3.78125 -2.695312 3.507812 -2.785156 3.125 -2.890625 C 2.757812 -2.992188 2.410156 -3.09375 2.078125 -3.1875 C 1.753906 -3.289062 1.472656 -3.421875 1.234375 -3.578125 C 1.003906 -3.742188 0.816406 -3.945312 0.671875 -4.1875 C 0.535156 -4.425781 0.46875 -4.734375 0.46875 -5.109375 C 0.46875 -5.785156 0.695312 -6.3125 1.15625 -6.6875 C 1.613281 -7.0625 2.265625 -7.25 3.109375 -7.25 C 4.335938 -7.25 5.207031 -6.828125 5.71875 -5.984375 L 4.609375 -5.125 C 4.421875 -5.425781 4.203125 -5.640625 3.953125 -5.765625 C 3.710938 -5.898438 3.425781 -5.96875 3.09375 -5.96875 C 2.757812 -5.96875 2.484375 -5.90625 2.265625 -5.78125 C 2.054688 -5.664062 1.953125 -5.476562 1.953125 -5.21875 C 1.953125 -4.988281 2.0625 -4.8125 2.28125 -4.6875 C 2.5 -4.570312 2.882812 -4.453125 3.4375 -4.328125 C 3.726562 -4.242188 4.019531 -4.15625 4.3125 -4.0625 C 4.613281 -3.976562 4.878906 -3.851562 5.109375 -3.6875 C 5.335938 -3.53125 5.519531 -3.320312 5.65625 -3.0625 C 5.800781 -2.800781 5.875 -2.46875 5.875 -2.0625 Z M 5.875 -2.0625 "/></g></g></g><g fill="#000000" fill-opacity="1"><g transform="translate(113.150911, 12.097616)"><g><path d="M 1.84375 -2.34375 C 1.863281 -1.863281 1.976562 -1.519531 2.1875 -1.3125 C 2.394531 -1.101562 2.722656 -1 3.171875 -1 C 3.429688 -1 3.660156 -1.03125 3.859375 -1.09375 C 4.054688 -1.164062 4.226562 -1.289062 4.375 -1.46875 L 5.359375 -0.765625 C 5.140625 -0.453125 4.859375 -0.21875 4.515625 -0.0625 C 4.171875 0.0820312 3.703125 0.15625 3.109375 0.15625 C 2.222656 0.15625 1.5625 -0.0703125 1.125 -0.53125 C 0.6875 -1 0.46875 -1.707031 0.46875 -2.65625 C 0.46875 -4.582031 1.332031 -5.546875 3.0625 -5.546875 C 3.820312 -5.546875 4.40625 -5.328125 4.8125 -4.890625 C 5.21875 -4.453125 5.421875 -3.820312 5.421875 -3 L 5.421875 -2.34375 Z M 4.109375 -3.265625 C 4.109375 -4.078125 3.75 -4.484375 3.03125 -4.484375 C 2.789062 -4.484375 2.59375 -4.441406 2.4375 -4.359375 C 2.289062 -4.285156 2.171875 -4.164062 2.078125 -4 C 1.992188 -3.84375 1.925781 -3.597656 1.875 -3.265625 Z M 4.109375 -3.265625 "/></g></g></g><g fill="#000000" fill-opacity="1"><g transform="translate(119.017565, 12.097616)"><g><path d="M 7.15625 0 L 7.15625 -3.171875 C 7.15625 -3.492188 7.132812 -3.742188 7.09375 -3.921875 C 7.0625 -4.097656 7.003906 -4.21875 6.921875 -4.28125 C 6.847656 -4.34375 6.722656 -4.375 6.546875 -4.375 C 6.347656 -4.375 6.132812 -4.296875 5.90625 -4.140625 C 5.6875 -3.992188 5.476562 -3.8125 5.28125 -3.59375 L 5.28125 0 L 3.953125 0 L 3.953125 -3.171875 C 3.953125 -3.523438 3.9375 -3.78125 3.90625 -3.9375 C 3.875 -4.09375 3.816406 -4.203125 3.734375 -4.265625 C 3.660156 -4.335938 3.53125 -4.375 3.34375 -4.375 C 3.175781 -4.375 2.984375 -4.3125 2.765625 -4.1875 C 2.554688 -4.0625 2.320312 -3.863281 2.0625 -3.59375 L 2.0625 0 L 0.75 0 L 0.75 -5.390625 L 2.0625 -5.390625 L 2.0625 -4.6875 C 2.3125 -4.957031 2.570312 -5.164062 2.84375 -5.3125 C 3.113281 -5.46875 3.414062 -5.546875 3.75 -5.546875 C 4.195312 -5.546875 4.523438 -5.46875 4.734375 -5.3125 C 4.953125 -5.15625 5.097656 -4.925781 5.171875 -4.625 C 5.484375 -4.9375 5.769531 -5.164062 6.03125 -5.3125 C 6.300781 -5.46875 6.617188 -5.546875 6.984375 -5.546875 C 7.503906 -5.546875 7.882812 -5.394531 8.125 -5.09375 C 8.363281 -4.789062 8.484375 -4.289062 8.484375 -3.59375 L 8.484375 0 Z M 7.15625 0 "/></g></g></g><g fill="#000000" fill-opacity="1"><g transform="translate(128.205053, 12.097616)"><g><path d="M 5.765625 -2.734375 C 5.765625 -2.148438 5.675781 -1.640625 5.5 -1.203125 C 5.332031 -0.765625 5.082031 -0.425781 4.75 -0.1875 C 4.425781 0.0390625 4.039062 0.15625 3.59375 0.15625 C 3 0.15625 2.488281 -0.03125 2.0625 -0.40625 L 2.0625 2.03125 L 0.75 2.03125 L 0.75 -5.390625 L 1.96875 -5.390625 L 1.96875 -4.859375 C 2.21875 -5.066406 2.476562 -5.234375 2.75 -5.359375 C 3.019531 -5.484375 3.332031 -5.546875 3.6875 -5.546875 C 4.363281 -5.546875 4.878906 -5.304688 5.234375 -4.828125 C 5.585938 -4.347656 5.765625 -3.648438 5.765625 -2.734375 Z M 4.40625 -2.71875 C 4.40625 -3.238281 4.3125 -3.644531 4.125 -3.9375 C 3.945312 -4.226562 3.679688 -4.375 3.328125 -4.375 C 3.109375 -4.375 2.882812 -4.320312 2.65625 -4.21875 C 2.425781 -4.125 2.226562 -4 2.0625 -3.84375 L 2.0625 -1.5 C 2.207031 -1.363281 2.382812 -1.25 2.59375 -1.15625 C 2.800781 -1.0625 3.015625 -1.015625 3.234375 -1.015625 C 3.597656 -1.015625 3.882812 -1.164062 4.09375 -1.46875 C 4.300781 -1.78125 4.40625 -2.195312 4.40625 -2.71875 Z M 4.40625 -2.71875 "/></g></g></g><g fill="#000000" fill-opacity="1"><g transform="translate(134.451525, 12.097616)"><g><path d="M 4 -4.09375 C 3.863281 -4.15625 3.679688 -4.1875 3.453125 -4.1875 C 3.203125 -4.1875 2.96875 -4.128906 2.75 -4.015625 C 2.53125 -3.898438 2.300781 -3.726562 2.0625 -3.5 L 2.0625 0 L 0.75 0 L 0.75 -5.390625 L 2.0625 -5.390625 L 2.0625 -4.609375 C 2.289062 -4.859375 2.535156 -5.0625 2.796875 -5.21875 C 3.054688 -5.382812 3.347656 -5.46875 3.671875 -5.46875 C 3.941406 -5.46875 4.132812 -5.429688 4.25 -5.359375 Z M 4 -4.09375 "/></g></g></g><g fill="#000000" fill-opacity="1"><g transform="translate(138.762972, 12.097616)"><g><path d="M 1.84375 -2.34375 C 1.863281 -1.863281 1.976562 -1.519531 2.1875 -1.3125 C 2.394531 -1.101562 2.722656 -1 3.171875 -1 C 3.429688 -1 3.660156 -1.03125 3.859375 -1.09375 C 4.054688 -1.164062 4.226562 -1.289062 4.375 -1.46875 L 5.359375 -0.765625 C 5.140625 -0.453125 4.859375 -0.21875 4.515625 -0.0625 C 4.171875 0.0820312 3.703125 0.15625 3.109375 0.15625 C 2.222656 0.15625 1.5625 -0.0703125 1.125 -0.53125 C 0.6875 -1 0.46875 -1.707031 0.46875 -2.65625 C 0.46875 -4.582031 1.332031 -5.546875 3.0625 -5.546875 C 3.820312 -5.546875 4.40625 -5.328125 4.8125 -4.890625 C 5.21875 -4.453125 5.421875 -3.820312 5.421875 -3 L 5.421875 -2.34375 Z M 4.109375 -3.265625 C 4.109375 -4.078125 3.75 -4.484375 3.03125 -4.484375 C 2.789062 -4.484375 2.59375 -4.441406 2.4375 -4.359375 C 2.289062 -4.285156 2.171875 -4.164062 2.078125 -4 C 1.992188 -3.84375 1.925781 -3.597656 1.875 -3.265625 Z M 4.109375 -3.265625 "/></g></g></g><g fill="#000000" fill-opacity="1"><g transform="translate(144.629625, 12.097616)"><g><path d="M 2.34375 -0.75 C 2.34375 -0.445312 2.273438 -0.234375 2.140625 -0.109375 C 2.003906 0.015625 1.789062 0.078125 1.5 0.078125 C 1.175781 0.078125 0.953125 0.0078125 0.828125 -0.125 C 0.710938 -0.269531 0.65625 -0.476562 0.65625 -0.75 C 0.65625 -1.03125 0.71875 -1.234375 0.84375 -1.359375 C 0.96875 -1.492188 1.1875 -1.5625 1.5 -1.5625 C 1.8125 -1.5625 2.03125 -1.492188 2.15625 -1.359375 C 2.28125 -1.234375 2.34375 -1.03125 2.34375 -0.75 Z M 2.34375 -0.75 "/></g></g></g></g></g></g></g></g><g transform="matrix(1, 0, 0, 1, 84, 152)"><g clip-path="url(#ca29360e3d)"><g fill="#000000" fill-opacity="1"><g transform="translate(0.687675, 48.182189)"><g><path d="M 19.578125 0 L 11.234375 -12.59375 L 9.40625 -10.484375 L 9.40625 0 L 3.265625 0 L 3.265625 -30.140625 L 9.40625 -30.140625 L 9.40625 -18.390625 L 19.28125 -30.140625 L 26.4375 -30.140625 L 15.203125 -17.171875 L 27.25 0 Z M 19.578125 0 "/></g></g></g><g fill="#000000" fill-opacity="1"><g transform="translate(28.565194, 48.182189)"><g><path d="M 7.796875 -9.953125 C 7.898438 -7.921875 8.394531 -6.460938 9.28125 -5.578125 C 10.164062 -4.691406 11.5625 -4.25 13.46875 -4.25 C 14.5625 -4.25 15.523438 -4.382812 16.359375 -4.65625 C 17.203125 -4.9375 17.9375 -5.46875 18.5625 -6.25 L 22.734375 -3.265625 C 21.828125 -1.941406 20.640625 -0.953125 19.171875 -0.296875 C 17.710938 0.347656 15.722656 0.671875 13.203125 0.671875 C 9.441406 0.671875 6.632812 -0.3125 4.78125 -2.28125 C 2.925781 -4.257812 2 -7.242188 2 -11.234375 C 2 -19.410156 5.660156 -23.5 12.984375 -23.5 C 16.234375 -23.5 18.710938 -22.578125 20.421875 -20.734375 C 22.128906 -18.898438 22.984375 -16.226562 22.984375 -12.71875 L 22.984375 -9.953125 Z M 17.40625 -13.828125 C 17.40625 -17.296875 15.882812 -19.03125 12.84375 -19.03125 C 11.84375 -19.03125 11.023438 -18.859375 10.390625 -18.515625 C 9.753906 -18.179688 9.242188 -17.675781 8.859375 -17 C 8.472656 -16.320312 8.171875 -15.265625 7.953125 -13.828125 Z M 17.40625 -13.828125 "/></g></g></g><g fill="#000000" fill-opacity="1"><g transform="translate(53.458953, 48.182189)"><g><path d="M 0.765625 3.078125 C 1.984375 3.492188 3.078125 3.703125 4.046875 3.703125 C 4.890625 3.703125 5.628906 3.445312 6.265625 2.9375 C 6.910156 2.425781 7.570312 1.375 8.25 -0.21875 L 8.84375 -1.5625 L 0.59375 -22.84375 L 6.421875 -22.84375 L 11.828125 -8.25 L 17.359375 -22.84375 L 23.0625 -22.84375 L 13.25 1.5625 C 12.445312 3.53125 11.664062 4.984375 10.90625 5.921875 C 10.15625 6.867188 9.273438 7.550781 8.265625 7.96875 C 7.253906 8.394531 5.988281 8.609375 4.46875 8.609375 C 2.8125 8.609375 1.175781 8.390625 -0.4375 7.953125 Z M 0.765625 3.078125 "/></g></g></g><g fill="#000000" fill-opacity="1"><g transform="translate(77.100411, 48.182189)"><g/></g></g><g fill="#000000" fill-opacity="1"><g transform="translate(87.815832, 48.182189)"><g/></g></g><g fill="#000000" fill-opacity="1"><g transform="translate(98.531253, 48.182189)"><g/></g></g><g fill="#000000" fill-opacity="1"><g transform="translate(109.246674, 48.182189)"><g/></g></g><g fill="#000000" fill-opacity="1"><g transform="translate(119.962096, 48.182189)"><g/></g></g><g fill="#000000" fill-opacity="1"><g transform="translate(130.684706, 48.182189)"><g><path d="M 26.359375 -8.734375 C 26.359375 -5.710938 25.316406 -3.5 23.234375 -2.09375 C 21.160156 -0.695312 18.28125 0 14.59375 0 L 3.265625 0 L 3.265625 -30.140625 L 13.921875 -30.140625 C 17.785156 -30.140625 20.550781 -29.578125 22.21875 -28.453125 C 23.882812 -27.328125 24.71875 -25.546875 24.71875 -23.109375 C 24.71875 -21.234375 24.265625 -19.710938 23.359375 -18.546875 C 22.453125 -17.390625 21.035156 -16.617188 19.109375 -16.234375 C 21.628906 -15.878906 23.46875 -15.078125 24.625 -13.828125 C 25.78125 -12.578125 26.359375 -10.878906 26.359375 -8.734375 Z M 18.515625 -21.765625 C 18.515625 -22.910156 18.09375 -23.703125 17.25 -24.140625 C 16.40625 -24.585938 15.097656 -24.8125 13.328125 -24.8125 L 9.40625 -24.8125 L 9.40625 -18.34375 L 13.15625 -18.34375 C 14.96875 -18.34375 16.3125 -18.59375 17.1875 -19.09375 C 18.070312 -19.601562 18.515625 -20.492188 18.515625 -21.765625 Z M 20.078125 -9.28125 C 20.078125 -10.632812 19.617188 -11.585938 18.703125 -12.140625 C 17.796875 -12.703125 16.082031 -12.984375 13.5625 -12.984375 L 9.40625 -12.984375 L 9.40625 -5.453125 L 12.53125 -5.453125 C 14.925781 -5.453125 16.578125 -5.566406 17.484375 -5.796875 C 18.390625 -6.023438 19.046875 -6.414062 19.453125 -6.96875 C 19.867188 -7.519531 20.078125 -8.289062 20.078125 -9.28125 Z M 20.078125 -9.28125 "/></g></g></g><g fill="#000000" fill-opacity="1"><g transform="translate(158.954252, 48.182189)"><g><path d="M 23.921875 -11.375 C 23.921875 -7.5625 23.039062 -4.597656 21.28125 -2.484375 C 19.519531 -0.378906 16.753906 0.671875 12.984375 0.671875 C 5.660156 0.671875 2 -3.34375 2 -11.375 C 2 -15.238281 2.878906 -18.222656 4.640625 -20.328125 C 6.398438 -22.441406 9.179688 -23.5 12.984375 -23.5 C 16.753906 -23.5 19.519531 -22.441406 21.28125 -20.328125 C 23.039062 -18.222656 23.921875 -15.238281 23.921875 -11.375 Z M 18.09375 -11.375 C 18.09375 -13.882812 17.703125 -15.71875 16.921875 -16.875 C 16.140625 -18.03125 14.828125 -18.609375 12.984375 -18.609375 C 11.148438 -18.609375 9.828125 -18.015625 9.015625 -16.828125 C 8.203125 -15.640625 7.796875 -13.820312 7.796875 -11.375 C 7.796875 -8.925781 8.195312 -7.125 9 -5.96875 C 9.8125 -4.820312 11.140625 -4.25 12.984375 -4.25 C 14.796875 -4.25 16.097656 -4.816406 16.890625 -5.953125 C 17.691406 -7.097656 18.09375 -8.90625 18.09375 -11.375 Z M 18.09375 -11.375 "/></g></g></g><g fill="#000000" fill-opacity="1"><g transform="translate(184.871633, 48.182189)"><g><path d="M 16.1875 0 L 11.65625 -7.28125 L 6.90625 0 L 0.671875 0 L 8.5625 -11.28125 L 0.8125 -22.84375 L 7.359375 -22.84375 L 11.921875 -15.625 L 16.59375 -22.84375 L 22.8125 -22.84375 L 14.9375 -11.59375 L 22.84375 0 Z M 16.1875 0 "/></g></g></g></g></g><path fill="#19bc4b" d="M 177.910156 187.035156 L 105.746094 106.519531 C 101.867188 102.207031 102.214844 95.542969 106.574219 91.707031 C 110.886719 87.832031 117.554688 88.179688 121.390625 92.535156 L 176.382812 153.878906 C 180.828125 158.84375 188.671875 158.453125 192.636719 153.136719 L 302.015625 5.621094 C 305.457031 0.957031 312.039062 0 316.703125 3.441406 C 321.363281 6.882812 322.324219 13.460938 318.878906 18.125 L 194.164062 186.292969 C 190.199219 191.652344 182.355469 192 177.910156 187.035156 Z M 177.910156 187.035156 " fill-opacity="1" fill-rule="nonzero"/><g clip-path="url(#547cff7cef)"><g clip-path="url(#796ff642b1)"><g transform="matrix(1, 0, 0, 1, 175, 180)"><g clip-path="url(#0830d7fe9f)"><g clip-path="url(#fb8cf1c64d)"><g clip-path="url(#a5c5da0f86)"><path fill="#ffffff" d="M 0.660156 0.707031 L 22.96875 0.707031 L 22.96875 23.015625 L 0.660156 23.015625 Z M 0.660156 0.707031 " fill-opacity="1" fill-rule="nonzero"/></g></g></g></g></g></g></svg>