<svg xmlns="http://www.w3.org/2000/svg" xmlns:xlink="http://www.w3.org/1999/xlink" width="500" zoomAndPan="magnify" viewBox="0 0 375 374.999991" height="500" preserveAspectRatio="xMidYMid meet" version="1.0"><defs><clipPath id="e01c1a8049"><path d="M 176.945312 176.945312 L 198.054688 176.945312 L 198.054688 198.054688 L 176.945312 198.054688 Z M 176.945312 176.945312 " clip-rule="nonzero"/></clipPath><clipPath id="00de834bfe"><path d="M 187.5 176.945312 C 181.671875 176.945312 176.945312 181.671875 176.945312 187.5 C 176.945312 193.328125 181.671875 198.054688 187.5 198.054688 C 193.328125 198.054688 198.054688 193.328125 198.054688 187.5 C 198.054688 181.671875 193.328125 176.945312 187.5 176.945312 Z M 187.5 176.945312 " clip-rule="nonzero"/></clipPath><clipPath id="5ab117ec4c"><path d="M 0.945312 0.945312 L 22.054688 0.945312 L 22.054688 22.054688 L 0.945312 22.054688 Z M 0.945312 0.945312 " clip-rule="nonzero"/></clipPath><clipPath id="356e58831b"><path d="M 11.5 0.945312 C 5.671875 0.945312 0.945312 5.671875 0.945312 11.5 C 0.945312 17.328125 5.671875 22.054688 11.5 22.054688 C 17.328125 22.054688 22.054688 17.328125 22.054688 11.5 C 22.054688 5.671875 17.328125 0.945312 11.5 0.945312 Z M 11.5 0.945312 " clip-rule="nonzero"/></clipPath><clipPath id="b7efaff067"><rect x="0" width="23" y="0" height="23"/></clipPath></defs><path fill="#19bc4b" d="M 179.039062 182.789062 L 110.804688 106.679688 C 107.136719 102.601562 107.46875 96.300781 111.585938 92.675781 C 115.667969 89.011719 121.96875 89.339844 125.597656 93.457031 L 177.59375 151.445312 C 181.796875 156.140625 189.214844 155.769531 192.964844 150.746094 L 296.382812 11.296875 C 299.640625 6.886719 305.859375 5.984375 310.269531 9.234375 C 314.679688 12.488281 315.585938 18.707031 312.328125 23.113281 L 194.40625 182.085938 C 190.65625 187.152344 183.238281 187.484375 179.039062 182.789062 Z M 179.039062 182.789062 " fill-opacity="1" fill-rule="nonzero"/><path fill="#ff3131" d="M 195.320312 183.941406 L 263.523438 260.054688 C 267.191406 264.132812 266.859375 270.433594 262.742188 274.058594 C 258.664062 277.726562 252.363281 277.394531 248.738281 273.277344 L 196.761719 215.285156 C 192.558594 210.589844 185.144531 210.960938 181.398438 215.984375 L 78.019531 355.445312 C 74.765625 359.851562 68.542969 360.757812 64.136719 357.503906 C 59.730469 354.25 58.824219 348.03125 62.078125 343.625 L 179.957031 184.640625 C 183.703125 179.578125 191.117188 179.246094 195.320312 183.941406 Z M 195.320312 183.941406 " fill-opacity="1" fill-rule="nonzero"/><g clip-path="url(#e01c1a8049)"><g clip-path="url(#00de834bfe)"><g transform="matrix(1, 0, 0, 1, 176, 176)"><g clip-path="url(#b7efaff067)"><g clip-path="url(#5ab117ec4c)"><g clip-path="url(#356e58831b)"><path fill="#ffffff" d="M 0.945312 0.945312 L 22.054688 0.945312 L 22.054688 22.054688 L 0.945312 22.054688 Z M 0.945312 0.945312 " fill-opacity="1" fill-rule="nonzero"/></g></g></g></g></g></g></svg>